PathFileType	4	(X/Y/Z)	C:/Users/opensim2020/Desktop/walking_exp_matlab/subject01_walking14_straight_02.trc	
DataRate	CameraRate	NumFrames	NumMarkers	Units	OrigDataRate	OrigDataStartFrame	OrigNumFrames	
100.00	100.00	4	42	mm	100.00	1162	125	
Frame#	Time	LFHD			RFHD			LBHD			RBHD			C7			T10			CLAV			STRN			RBAK			LSHO			LUPA			LELB			LFRM			LWRA			LWRB			LFIN			RSHO			RUPA			RELB			RFRM			RWRA			RWRB			RFIN			LASI			RASI			LPSI			RPSI			LTHI			LKNE			LTIB			LANK			LHEE			LTOE			RTHI			RKNE			RTIB			RANK			RHEE			RTOE			*39			*40			*41			
		X1	Y1	Z1	X2	Y2	Z2	X3	Y3	Z3	X4	Y4	Z4	X5	Y5	Z5	X6	Y6	Z6	X7	Y7	Z7	X8	Y8	Z8	X9	Y9	Z9	X10	Y10	Z10	X11	Y11	Z11	X12	Y12	Z12	X13	Y13	Z13	X14	Y14	Z14	X15	Y15	Z15	X16	Y16	Z16	X17	Y17	Z17	X18	Y18	Z18	X19	Y19	Z19	X20	Y20	Z20	X21	Y21	Z21	X22	Y22	Z22	X23	Y23	Z23	X24	Y24	Z24	X25	Y25	Z25	X26	Y26	Z26	X27	Y27	Z27	X28	Y28	Z28	X29	Y29	Z29	X30	Y30	Z30	X31	Y31	Z31	X32	Y32	Z32	X33	Y33	Z33	X34	Y34	Z34	X35	Y35	Z35	X36	Y36	Z36	X37	Y37	Z37	X38	Y38	Z38	X39	Y39	Z39	X40	Y40	Z40	X41	Y41	Z41	X42	Y42	Z42	

16	0.150	-1027.27100	797.05170	1655.85803	-1134.38513	756.20074	1662.93408	-1064.78687	904.14673	1605.87451	-1178.90527	864.71765	1612.40588	-1093.16821	925.22729	1420.29443	-1096.63879	976.46472	1127.86987	-1085.66235	780.85748	1347.38281	-1083.41785	745.65417	1191.60388	-1172.81702	986.26355	1231.52490	-926.83142	845.86914	1377.61353	-842.84503	916.47955	1203.28235	-848.05347	973.97339	1068.15198	-817.91571	986.67090	958.09241	-822.65033	965.84113	818.27557	-808.76141	1019.46472	840.16254	-787.11261	1011.83301	759.45917	-1236.81873	839.78070	1388.44397	-1348.30005	908.08881	1201.70276	-1375.44397	896.84271	1077.23840	-1403.40186	800.63086	998.26624	-1382.08899	665.60474	968.09216	-1417.39063	696.68115	936.14801	-1425.72437	616.37164	912.73108	-996.55634	798.38660	921.06860	-1212.24707	818.20343	912.09991	-1025.16138	987.22095	933.30676	-1168.60229	999.20032	940.22571	-939.07373	741.20355	608.72186	-964.54932	709.83032	481.10437	-954.50177	732.02948	292.38110	-1012.00262	741.06525	74.86909	-1064.90833	784.76794	44.32446	-1010.00238	595.02759	42.42112	-1277.08691	955.23871	598.57922	-1269.00757	997.06104	442.60056	-1267.24121	1145.08813	343.16748	-1233.30273	1285.22644	185.05908	-1173.23926	1328.59692	193.14374	-1234.28516	1242.88000	42.47187	-1115.44141	774.70453	1695.90930	-3102.08008	1973.09485	1023.50104	-3140.80127	2012.51392	1022.07233 
17	0.160	-1024.77246	783.25586	1655.80566	-1132.01892	742.21051	1663.22192	-1062.71240	890.48364	1606.34912	-1176.74475	850.86139	1613.25549	-1091.55188	912.13812	1420.21973	-1095.67529	962.40942	1127.93140	-1084.22168	767.32361	1347.84375	-1082.52307	731.62915	1192.28491	-1171.65173	972.70264	1231.87036	-925.52002	832.28302	1377.75403	-841.96179	901.36169	1202.64294	-847.24591	958.06024	1067.00146	-817.62012	969.50732	956.82654	-823.03699	947.46991	817.15967	-808.68762	1001.24213	838.61456	-787.67169	992.88165	757.58771	-1235.26453	826.41858	1388.93799	-1346.15857	896.53448	1202.42371	-1372.91565	886.20984	1077.87366	-1400.92749	791.23041	997.25226	-1379.71082	656.67041	964.58990	-1414.98792	688.38989	933.18140	-1423.33228	608.54480	908.19653	-995.50854	784.13373	922.10144	-1210.78015	803.50562	911.97180	-1024.99011	972.99036	933.99969	-1168.57544	984.24194	939.51227	-938.98645	729.11542	607.82153	-964.36212	699.20471	479.60513	-955.32532	724.05768	290.58624	-1012.57074	739.22595	74.37065	-1065.09937	784.30414	44.66578	-1010.24573	593.44720	41.42617	-1277.44580	933.69446	595.74030	-1269.95679	972.71906	439.58450	-1268.18372	1123.60962	344.60855	-1234.73840	1269.42029	191.90010	-1174.99927	1312.06848	203.57924	-1234.07861	1236.61304	47.01185	-1112.61060	760.60516	1695.96326	-3101.87231	1973.07581	1023.53387	-3140.72559	2012.55493	1022.14673 
18	0.170	-1022.56787	769.37726	1656.00964	-1129.69153	728.22601	1663.74316	-1060.77405	876.73633	1606.99731	-1174.95178	837.04041	1614.34619	-1090.26013	899.22803	1420.44531	-1094.82214	948.48181	1128.22803	-1083.22095	753.87439	1348.41809	-1081.63904	717.93274	1192.98181	-1170.61719	959.28900	1232.31470	-924.31549	818.74799	1378.07141	-841.05725	886.27332	1202.15442	-846.54346	941.50989	1065.92188	-817.20020	951.76630	955.49640	-823.50183	928.30261	816.00916	-808.44183	982.07855	836.89471	-788.09631	972.88654	755.83478	-1234.08472	813.18829	1389.46643	-1344.42017	884.82288	1203.25745	-1370.41406	875.72034	1078.54468	-1398.42859	782.14130	995.97937	-1377.27429	648.10138	960.57935	-1412.64429	680.51691	929.74384	-1420.85266	601.24805	903.02344	-994.24146	770.39520	923.18347	-1209.26587	788.72644	912.14484	-1024.88379	959.09430	934.84509	-1168.69238	969.88849	938.85510	-938.87152	717.75671	606.55646	-963.93933	689.75909	477.31262	-955.79089	718.53455	288.99188	-1013.07416	738.50214	74.22955	-1065.19812	784.05981	44.88570	-1010.36523	592.41541	40.43570	-1277.50378	911.88818	592.87274	-1270.55396	947.08246	436.40601	-1269.67395	1100.92590	346.06335	-1235.20667	1251.40845	199.31316	-1176.34973	1293.69812	214.92455	-1234.34827	1227.56165	53.66208	-1110.31116	746.48700	1696.41125	-3101.97534	1973.10498	1023.44110	-3140.69482	2012.42725	1022.15656 
19	0.180	-1020.45538	755.54559	1656.48352	-1127.50378	714.14618	1664.43823	-1059.01904	862.93652	1607.93115	-1172.97803	823.06030	1615.51880	-1089.01453	886.16364	1420.99854	-1094.02600	934.71582	1128.77393	-1082.04370	740.53693	1349.17603	-1080.91431	704.46771	1193.79248	-1169.66650	946.01123	1233.01624	-923.16412	805.21820	1378.53333	-840.22162	871.13123	1201.73340	-845.79938	924.54071	1064.81482	-816.86157	933.41736	954.09711	-823.98236	908.19159	814.98145	-808.38873	962.11176	835.01398	-788.55646	951.64551	754.11536	-1232.96802	800.15247	1390.17798	-1342.89392	873.09363	1204.08838	-1367.82568	865.22766	1079.12988	-1396.00684	773.31787	994.43481	-1374.91064	639.90137	956.13495	-1410.00781	673.11890	925.84619	-1418.35156	594.52985	897.28894	-993.07172	757.07098	923.99329	-1208.26013	774.89453	912.26935	-1024.75891	945.53314	935.78351	-1168.92175	955.87903	938.21429	-938.25110	707.57117	604.98273	-963.17865	681.17004	475.13559	-955.51538	714.72974	288.38284	-1013.20630	737.98108	74.23199	-1065.36890	783.86450	45.00880	-1010.52759	591.69183	39.91000	-1277.48096	889.73492	590.21356	-1270.69849	920.23035	433.29684	-1271.20178	1076.53979	347.31784	-1235.35413	1231.59595	207.58151	-1177.54041	1273.98291	226.77774	-1234.91223	1215.71423	61.50167	-1107.76318	732.69794	1696.85645	-3102.76611	1972.84875	1023.20349	-3140.43823	2012.66187	1022.47968 
